<svg xmlns="http://www.w3.org/2000/svg" viewBox="0 0 32 32">
<style>rect{fill:#141413}@media (prefers-color-scheme: dark){rect{fill:#EDEDEA}}</style>
<rect x="14.33" y="0.11" width="1.56" height="1.56"/><rect x="16.11" y="0.11" width="1.56" height="1.56"/><rect x="14.33" y="1.88" width="1.56" height="1.56"/><rect x="16.11" y="1.88" width="1.56" height="1.56"/><rect x="14.33" y="3.66" width="1.56" height="1.56"/><rect x="16.11" y="3.66" width="1.56" height="1.56"/><rect x="14.33" y="5.44" width="1.56" height="1.56"/><rect x="16.11" y="5.44" width="1.56" height="1.56"/><rect x="12.55" y="7.22" width="1.56" height="1.56"/><rect x="14.33" y="7.22" width="1.56" height="1.56"/><rect x="16.11" y="7.22" width="1.56" height="1.56"/><rect x="17.88" y="7.22" width="1.56" height="1.56"/><rect x="12.55" y="9" width="1.56" height="1.56"/><rect x="14.33" y="9" width="1.56" height="1.56"/><rect x="16.11" y="9" width="1.56" height="1.56"/><rect x="17.88" y="9" width="1.56" height="1.56"/><rect x="12.55" y="10.77" width="1.56" height="1.56"/><rect x="14.33" y="10.77" width="1.56" height="1.56"/><rect x="16.11" y="10.77" width="1.56" height="1.56"/><rect x="17.88" y="10.77" width="1.56" height="1.56"/><rect x="7.22" y="12.55" width="1.56" height="1.56"/><rect x="9" y="12.55" width="1.56" height="1.56"/><rect x="10.77" y="12.55" width="1.56" height="1.56"/><rect x="12.55" y="12.55" width="1.56" height="1.56"/><rect x="14.33" y="12.55" width="1.56" height="1.56"/><rect x="16.11" y="12.55" width="1.56" height="1.56"/><rect x="17.88" y="12.55" width="1.56" height="1.56"/><rect x="19.66" y="12.55" width="1.56" height="1.56"/><rect x="21.44" y="12.55" width="1.56" height="1.56"/><rect x="23.22" y="12.55" width="1.56" height="1.56"/><rect x="3.66" y="14.33" width="1.56" height="1.56"/><rect x="5.44" y="14.33" width="1.56" height="1.56"/><rect x="7.22" y="14.33" width="1.56" height="1.56"/><rect x="9" y="14.33" width="1.56" height="1.56"/><rect x="10.77" y="14.33" width="1.56" height="1.56"/><rect x="12.55" y="14.33" width="1.56" height="1.56"/><rect x="14.33" y="14.33" width="1.56" height="1.56"/><rect x="16.11" y="14.33" width="1.56" height="1.56"/><rect x="17.88" y="14.33" width="1.56" height="1.56"/><rect x="19.66" y="14.33" width="1.56" height="1.56"/><rect x="21.44" y="14.33" width="1.56" height="1.56"/><rect x="23.22" y="14.33" width="1.56" height="1.56"/><rect x="25" y="14.33" width="1.56" height="1.56"/><rect x="26.77" y="14.33" width="1.56" height="1.56"/><rect x="3.66" y="16.11" width="1.56" height="1.56"/><rect x="5.44" y="16.11" width="1.56" height="1.56"/><rect x="7.22" y="16.11" width="1.56" height="1.56"/><rect x="9" y="16.11" width="1.56" height="1.56"/><rect x="10.77" y="16.11" width="1.56" height="1.56"/><rect x="12.55" y="16.11" width="1.56" height="1.56"/><rect x="14.33" y="16.11" width="1.56" height="1.56"/><rect x="16.11" y="16.11" width="1.56" height="1.56"/><rect x="17.88" y="16.11" width="1.56" height="1.56"/><rect x="19.66" y="16.11" width="1.56" height="1.56"/><rect x="21.44" y="16.11" width="1.56" height="1.56"/><rect x="23.22" y="16.11" width="1.56" height="1.56"/><rect x="25" y="16.11" width="1.56" height="1.56"/><rect x="26.77" y="16.11" width="1.56" height="1.56"/><rect x="7.22" y="17.88" width="1.56" height="1.56"/><rect x="9" y="17.88" width="1.56" height="1.56"/><rect x="10.77" y="17.88" width="1.56" height="1.56"/><rect x="12.55" y="17.88" width="1.56" height="1.56"/><rect x="14.33" y="17.88" width="1.56" height="1.56"/><rect x="16.11" y="17.88" width="1.56" height="1.56"/><rect x="17.88" y="17.88" width="1.56" height="1.56"/><rect x="19.66" y="17.88" width="1.56" height="1.56"/><rect x="21.44" y="17.88" width="1.56" height="1.56"/><rect x="23.22" y="17.88" width="1.56" height="1.56"/><rect x="12.55" y="19.66" width="1.56" height="1.56"/><rect x="14.33" y="19.66" width="1.56" height="1.56"/><rect x="16.11" y="19.66" width="1.56" height="1.56"/><rect x="17.88" y="19.66" width="1.56" height="1.56"/><rect x="12.55" y="21.44" width="1.56" height="1.56"/><rect x="14.33" y="21.44" width="1.56" height="1.56"/><rect x="16.11" y="21.44" width="1.56" height="1.56"/><rect x="17.88" y="21.44" width="1.56" height="1.56"/><rect x="12.55" y="23.22" width="1.56" height="1.56"/><rect x="14.33" y="23.22" width="1.56" height="1.56"/><rect x="16.11" y="23.22" width="1.56" height="1.56"/><rect x="17.88" y="23.22" width="1.56" height="1.56"/><rect x="14.33" y="25" width="1.56" height="1.56"/><rect x="16.11" y="25" width="1.56" height="1.56"/><rect x="14.33" y="26.77" width="1.56" height="1.56"/><rect x="16.11" y="26.77" width="1.56" height="1.56"/><rect x="14.33" y="28.55" width="1.56" height="1.56"/><rect x="16.11" y="28.55" width="1.56" height="1.56"/><rect x="14.33" y="30.33" width="1.56" height="1.56"/><rect x="16.11" y="30.33" width="1.56" height="1.56"/>
</svg>